<svg xmlns="http://www.w3.org/2000/svg" xmlns:xlink="http://www.w3.org/1999/xlink" width="832.17" height="738.361" viewBox="0 0 832.17 738.361">
  <defs>
    <filter id="cardBg" x="0" y="0" width="832.17" height="738.361" filterUnits="userSpaceOnUse">
      <feOffset dy="100" input="SourceAlpha"/>
      <feGaussianBlur stdDeviation="49.5" result="blur"/>
      <feFlood flood-color="#1f485d" flood-opacity="0.2"/>
      <feComposite operator="in" in2="blur"/>
      <feComposite in="SourceGraphic"/>
    </filter>
  </defs>
  <g id="Rank_Projects" data-name="Rank, Projects" transform="matrix(0.966, -0.259, 0.259, 0.966, 148.5, 168.851)">
    <g transform="matrix(0.97, 0.26, -0.26, 0.97, -99.74, -201.53)" filter="url(#cardBg)">
      <rect id="cardBg-2" data-name="cardBg" width="465" height="332.334" rx="8" transform="matrix(0.97, -0.26, 0.26, 0.97, 148.5, 168.85)" fill="#fff"/>
    </g>
    <path id="divider" d="M0,.5,400.677.5" transform="translate(32.161 185.098)" fill="none" stroke="#e6ebf0" stroke-linecap="square" stroke-miterlimit="10" stroke-width="1"/>
    <text id="RANK" transform="translate(32.161 50.821)" fill="#79828b" font-size="18" font-family="Poppins-Medium, Poppins" font-weight="500"><tspan x="0" y="0" letter-spacing="0.107em">RAN</tspan><tspan y="0">K</tspan></text>
    <text id="PROJECTS" transform="translate(277.392 50.821)" fill="#79828b" font-size="18" font-family="Poppins-Medium, Poppins" font-weight="500"><tspan x="0" y="0" letter-spacing="0.107em">PROJECT</tspan><tspan y="0">S</tspan></text>
    <g id="rank-2" data-name="rank" transform="translate(32.161 79.063)">
      <circle id="Oval_8" data-name="Oval 8" cx="21.441" cy="21.441" r="21.441" fill="#b9b9b9" opacity="0.5"/>
      <path id="Star" d="M10.72,17.778,4.095,21.441,5.36,13.684,0,8.19,7.408,7.058,10.72,0l3.313,7.058L21.441,8.19l-5.36,5.494,1.265,7.757Z" transform="translate(10.72 10.72)" fill="#fff"/>
    </g>
    <g id="projects-2" data-name="projects" transform="translate(277.392 79.063)">
      <circle id="Oval_8-2" data-name="Oval 8" cx="21.441" cy="21.441" r="21.441" fill="#b9b9b9" opacity="0.5"/>
      <path id="Fill_1" data-name="Fill 1" d="M17.2,17.42h0l-1.934-2.006,6.322-6.7L15.267,2.042,17.2,0l8.259,8.71L17.2,17.419Zm-8.943,0h0L0,8.71,8.259,0l1.936,2.042L3.871,8.71l6.323,6.7L8.26,17.419Z" transform="translate(9.38 13.401)" fill="#fff"/>
    </g>
    <rect id="Rectangle_492" data-name="Rectangle 492" width="140.706" height="18.761" rx="9.38" transform="translate(88.444 91.124)" fill="#ff5353"/>
    <rect id="Rectangle_500" data-name="Rectangle 500" width="97.824" height="18.761" rx="9.38" transform="translate(333.674 91.124)" fill="#ff5353"/>
    <rect id="Rectangle_494" data-name="Rectangle 494" width="127.305" height="14.294" rx="7.147" transform="translate(32.161 141.599)" fill="#ff5353" opacity="0.3"/>
    <rect id="Rectangle_496" data-name="Rectangle 496" width="127.305" height="13.401" rx="6.7" transform="translate(32.161 221.11)" fill="#ff5353"/>
    <rect id="Rectangle_497" data-name="Rectangle 497" width="68.343" height="13.401" rx="6.7" transform="translate(32.161 269.352)" fill="#ff5353" opacity="0.3"/>
    <rect id="Rectangle_498" data-name="Rectangle 498" width="68.343" height="13.401" rx="6.7" transform="translate(143.386 269.352)" fill="#ff5353" opacity="0.3"/>
    <rect id="Rectangle_499" data-name="Rectangle 499" width="68.343" height="13.401" rx="6.7" transform="translate(263.991 269.352)" fill="#ff5353" opacity="0.3"/>
    <rect id="Rectangle_495" data-name="Rectangle 495" width="127.305" height="14.294" rx="7.147" transform="translate(277.392 141.599)" fill="#ff5353" opacity="0.3"/>
  </g>
</svg>
