<svg xmlns="http://www.w3.org/2000/svg" xmlns:xlink="http://www.w3.org/1999/xlink" width="760" height="667.4" viewBox="0 0 760 667.4">
  <defs>
    <filter id="cardBg" x="0" y="0" width="760" height="667.4" filterUnits="userSpaceOnUse">
      <feOffset dy="50" input="SourceAlpha"/>
      <feGaussianBlur stdDeviation="49.5" result="blur"/>
      <feFlood flood-color="#1f305d" flood-opacity="0.259"/>
      <feComposite operator="in" in2="blur"/>
      <feComposite in="SourceGraphic"/>
    </filter>
  </defs>
  <g id="Group_212" data-name="Group 212" transform="translate(148.5 46.5)">
    <g transform="matrix(1, 0, 0, 1, -148.5, -46.5)" filter="url(#cardBg)">
      <rect id="cardBg-2" data-name="cardBg" width="463" height="370.4" rx="8" transform="translate(148.5 98.5)" fill="#fff"/>
    </g>
    <circle id="Mask" cx="31.749" cy="31.749" r="31.749" transform="translate(31.749 83.749)" fill="#ff5353" opacity="0.79"/>
    <path id="divider" d="M0,.5H399.5" transform="translate(31.749 320.701)" fill="none" stroke="#e6ebf0" stroke-linecap="square" stroke-miterlimit="10" stroke-width="1"/>
    <rect id="Rectangle_503" data-name="Rectangle 503" width="124.349" height="14.551" rx="7" transform="translate(120.38 94.331)" fill="#ff5353"/>
    <rect id="Rectangle_507" data-name="Rectangle 507" width="82.017" height="14.551" rx="7" transform="translate(120.38 119.466)" fill="#ff5353" opacity="0.3"/>
    <rect id="Rectangle_504" data-name="Rectangle 504" width="387.597" height="14.551" rx="7" transform="translate(31.749 197.514)" fill="#ff5353" opacity="0.2"/>
    <rect id="Rectangle_505" data-name="Rectangle 505" width="300.289" height="14.551" rx="7" transform="translate(31.749 225.294)" fill="#ff5353" opacity="0.2"/>
    <rect id="Rectangle_506" data-name="Rectangle 506" width="230.177" height="14.551" rx="7" transform="translate(31.749 253.074)" fill="#ff5353" opacity="0.2"/>
    <g id="Group_200" data-name="Group 200" transform="translate(347.911 99.623)">
      <rect id="Rectangle_6" data-name="Rectangle 6" width="83.34" height="31.749" rx="15.874" fill="#ff5353" opacity="0.3"/>
      <rect id="Rectangle_6-2" data-name="Rectangle 6" width="39.066" height="5.291" rx="2.646" transform="translate(22.137 13.229)" fill="#fff" opacity="0.3"/>
    </g>
    <g id="Group_201" data-name="Group 201" transform="translate(31.749 356.257)">
      <rect id="Rectangle_6-3" data-name="Rectangle 6" width="83.34" height="31.749" rx="15.874" transform="translate(0 0)" fill="#ff5353"/>
      <rect id="Rectangle_6-4" data-name="Rectangle 6" width="39.066" height="5.291" rx="2.646" transform="translate(22.137 13.229)" fill="#fff" opacity="0.3"/>
    </g>
    <g id="Group_202" data-name="Group 202" transform="translate(190.491 356.257)">
      <rect id="Rectangle_6-5" data-name="Rectangle 6" width="83.34" height="31.749" rx="15.874" transform="translate(0 0)" fill="#ff5353"/>
      <rect id="Rectangle_6-6" data-name="Rectangle 6" width="39.066" height="5.291" rx="2.646" transform="translate(22.137 13.229)" fill="#fff" opacity="0.3"/>
    </g>
    <g id="Group_203" data-name="Group 203" transform="translate(347.912 356.257)">
      <rect id="Rectangle_6-7" data-name="Rectangle 6" width="83.34" height="31.749" rx="15.874" transform="translate(0 0)" fill="#ff5353"/>
      <rect id="Rectangle_6-8" data-name="Rectangle 6" width="39.066" height="5.291" rx="2.646" transform="translate(22.137 13.229)" fill="#fff" opacity="0.3"/>
    </g>
  </g>
</svg>
